<?xml version="1.0" encoding="utf-8"?>
<!-- Generator: Adobe Illustrator 19.1.0, SVG Export Plug-In . SVG Version: 6.00 Build 0)  -->
<svg version="1.1" id="Layer_1" xmlns="http://www.w3.org/2000/svg" xmlns:xlink="http://www.w3.org/1999/xlink" x="0px" y="0px"
	 viewBox="0 0 153.6 109.9" style="enable-background:new 0 0 153.6 109.9;" xml:space="preserve">
<style type="text/css">
	.st0{fill:#894B9D;}
	.st1{font-family:'Verdana';}
	.st2{font-size:60px;}
	.st3{font-size:42px;}
	.st4{font-family:'SupraClassic-Normal';}
	.st5{font-size:92px;}
	.st6{fill:url(#SVGID_1_);}
	.st7{fill:none;stroke:#894B9D;stroke-width:10;stroke-miterlimit:10;}
	.st8{fill:none;stroke:#894B9D;stroke-width:10;stroke-miterlimit:10;stroke-dasharray:7.9584,7.9584;}
</style>
<text transform="matrix(1 0 0 1 39.1583 79.8359)" class="st0 st1 st2">JU</text>
<text transform="matrix(1 0 0 1 24.4861 66.5512)" class="st0 st1 st3">c</text>
<text transform="matrix(1 0 0 1 106.8172 83.1092)" class="st0 st4 st5">g</text>
<linearGradient id="SVGID_1_" gradientUnits="userSpaceOnUse" x1="49.3442" y1="26.6935" x2="62.0108" y2="26.6935">
	<stop  offset="0" style="stop-color:#E64C3C"/>
	<stop  offset="0.1427" style="stop-color:#EA6C5F"/>
	<stop  offset="0.4462" style="stop-color:#F3AAA3"/>
	<stop  offset="0.7005" style="stop-color:#FAD8D5"/>
	<stop  offset="0.8925" style="stop-color:#FEF4F3"/>
	<stop  offset="1" style="stop-color:#FFFFFF"/>
</linearGradient>
<circle class="st6" cx="55.7" cy="26.7" r="6.3"/>
<path class="st0" d="M14.1,54.1c0-21.1,20.1-38.7,42.4-37.2c5,0.3,5.4,0.3,10.9,1.8c5.3,1.4,10.7,4.6,9.1,3.7
	c-3.9-1.3-9-10.6-28.3-8C26.4,17.2,8.6,32,8.6,53.8c0,21.8,17.7,39.5,39.5,39.5c0.9,0,2.8,0,3.8-0.1c0-0.3,0.1-0.7,0.2-1.1
	C31.4,90.5,14.1,74.1,14.1,54.1z"/>
<g>
	<g>
		<path class="st7" d="M81.1,20.4c-0.8-1-1.8-1.9-2.9-2.7"/>
		<path class="st8" d="M71.3,13.6c-7-3.2-15.6-4.6-22-3.5C19.7,15.2,4.3,34,4.5,55.1c0.2,20.5,15.9,38.6,40.3,41.2"/>
		<path class="st7" d="M48.8,96.6c1.3,0,2.6,0.1,4,0"/>
	</g>
</g>
</svg>
