<?xml version="1.0" encoding="utf-8"?>
<!-- Generator: Adobe Illustrator 19.1.0, SVG Export Plug-In . SVG Version: 6.00 Build 0)  -->
<svg version="1.1" id="Layer_1" xmlns="http://www.w3.org/2000/svg" xmlns:xlink="http://www.w3.org/1999/xlink" x="0px" y="0px"
	 viewBox="0 0 153.5 105.4" style="enable-background:new 0 0 153.5 105.4;" xml:space="preserve">
<style type="text/css">
	.st0{fill:#ECF0F1;}
	.st1{font-family:'Verdana';}
	.st2{font-size:60px;}
	.st3{font-size:42px;}
	.st4{font-family:'SupraClassic-Normal';}
	.st5{font-size:92px;}
	.st6{fill:url(#SVGID_1_);}
	.st7{fill:#894B9D;}
</style>
<text transform="matrix(1 0 0 1 39.0546 75.3596)" class="st0 st1 st2">JU</text>
<text transform="matrix(1 0 0 1 24.3824 62.075)" class="st0 st1 st3">c</text>
<text transform="matrix(1 0 0 1 106.7135 78.6329)" class="st0 st4 st5">g</text>
<linearGradient id="SVGID_1_" gradientUnits="userSpaceOnUse" x1="49.2404" y1="22.2172" x2="61.9071" y2="22.2172">
	<stop  offset="0" style="stop-color:#E64C3C"/>
	<stop  offset="0.1427" style="stop-color:#EA6C5F"/>
	<stop  offset="0.4462" style="stop-color:#F3AAA3"/>
	<stop  offset="0.7005" style="stop-color:#FAD8D5"/>
	<stop  offset="0.8925" style="stop-color:#FEF4F3"/>
	<stop  offset="1" style="stop-color:#FFFFFF"/>
</linearGradient>
<circle class="st6" cx="55.6" cy="22.2" r="6.3"/>
<rect x="51.8" y="1.3" transform="matrix(0.9946 0.1037 -0.1037 0.9946 0.9289 -5.751)" class="st7" width="8" height="9.6"/>
<rect x="32.1" y="2.2" transform="matrix(0.9395 -0.3425 0.3425 0.9395 -0.2322 12.8112)" class="st7" width="8" height="9.7"/>
<rect x="15.8" y="11.6" transform="matrix(0.741 -0.6715 0.6715 0.741 -5.8603 17.5558)" class="st7" width="8" height="9.5"/>
<rect x="4.2" y="26.6" transform="matrix(0.3429 -0.9394 0.9394 0.3429 -24.3784 28.5674)" class="st7" width="8" height="10.1"/>
<rect x="1.6" y="48.7" transform="matrix(-0.1247 -0.9922 0.9922 -0.1247 -46.5777 65.5473)" class="st7" width="8" height="9.2"/>
<rect x="8.5" y="70.3" transform="matrix(0.8988 -0.4383 0.4383 0.8988 -31.0269 13.4707)" class="st7" width="10.4" height="7.3"/>
<rect x="22.6" y="83.8" transform="matrix(0.6839 -0.7295 0.7295 0.6839 -54.8428 48.3524)" class="st7" width="11.5" height="7.3"/>
<rect x="46.6" y="87.6" transform="matrix(0.9986 -5.233596e-02 5.233596e-02 0.9986 -4.7682 2.7735)" class="st7" width="8" height="9.8"/>
<path class="st7" d="M14,49.6c0-21.1,18.1-38.2,40.4-38.2c2.1,0,4.1,0.1,6.1,0.4c-3.9-1.3-8.1-2-12.5-2C26.2,9.8,8.5,27.5,8.5,49.3
	c0,21.8,17.7,39.5,39.5,39.5c0.9,0,1.8,0,2.8-0.1c0-0.3,0.1-0.7,0.2-1.1C30.2,86,14,69.6,14,49.6z"/>
</svg>
